<?xml version="1.0" standalone="no"?>
<!DOCTYPE svg PUBLIC "-//W3C//DTD SVG 20010904//EN"
 "http://www.w3.org/TR/2001/REC-SVG-20010904/DTD/svg10.dtd">
<svg version="1.0" xmlns="http://www.w3.org/2000/svg"
 width="500.000000pt" height="500.000000pt" viewBox="0 0 500.000000 500.000000"
 preserveAspectRatio="xMidYMid meet">

<g transform="translate(0.000000,500.000000) scale(0.100000,-0.100000)"
fill="#000000" stroke="none">
<path d="M0 2500 l0 -2500 2500 0 2500 0 0 851 c0 934 2 908 -56 846 -16 -17
-28 -35 -26 -40 1 -4 -2 -6 -6 -3 -5 3 -46 -29 -91 -71 -109 -101 -131 -118
-132 -101 0 7 -4 4 -9 -7 -5 -11 -9 -14 -9 -7 -1 8 -6 10 -13 6 -7 -4 34 41
92 100 58 58 106 111 107 117 1 5 -1 5 -4 -1 -2 -5 -9 -10 -14 -10 -6 0 -7 5
-4 10 3 6 -1 10 -10 10 -9 0 -13 -4 -10 -10 3 -5 1 -19 -5 -30 -8 -16 -15 -18
-29 -11 -14 8 -28 -1 -76 -49 l-59 -59 -47 44 c-46 43 -74 61 -50 31 9 -11 4
-13 -26 -10 -21 1 -43 10 -49 19 -8 11 -14 13 -19 5 -4 -6 -15 -8 -26 -5 -13
5 -19 2 -17 -7 2 -7 -3 -12 -9 -11 -7 2 -13 0 -13 -3 0 -7 61 -85 87 -112 7
-8 18 -22 23 -33 14 -24 -4 -26 -22 -1 -7 9 -31 31 -53 48 -34 26 -44 30 -68
22 -15 -5 -27 -15 -27 -22 0 -7 -14 -25 -31 -41 l-32 -27 31 -25 c20 -15 29
-29 25 -39 -4 -12 -15 -6 -49 27 l-44 43 61 62 c34 34 57 64 51 68 -5 3 -12
-3 -15 -14 -3 -12 -13 -18 -26 -17 -19 1 -26 16 -22 41 1 5 -5 4 -13 -4 -9 -7
-16 -9 -16 -5 0 4 -8 1 -17 -6 -15 -12 -16 -12 -8 1 5 8 -8 1 -30 -17 -21 -18
-42 -30 -47 -27 -12 8 -38 -15 -38 -34 0 -8 -7 -23 -16 -33 -14 -16 -14 -20 2
-43 23 -36 15 -40 -24 -10 -40 32 -40 50 -1 97 29 35 31 58 6 56 -9 0 -9 -2 1
-6 6 -2 12 -9 12 -14 0 -4 -7 -6 -15 -3 -8 4 -23 0 -33 -7 -15 -13 -16 -12 -4
3 12 16 10 17 -25 12 -57 -8 -62 -11 -75 -41 -9 -22 -12 -24 -15 -10 -5 18
-23 24 -23 7 0 -5 -4 -10 -10 -10 -5 0 -10 7 -10 15 0 21 -34 37 -49 22 -10
-9 -11 -8 -6 6 5 12 2 17 -11 17 -25 -1 -52 -22 -47 -37 3 -8 -4 -13 -16 -13
-12 0 -21 -6 -21 -15 0 -9 6 -12 15 -9 8 4 15 1 15 -6 0 -7 9 -2 19 11 l20 24
-2 -22 c-1 -13 -5 -23 -10 -23 -5 0 -6 -24 -3 -52 l7 -53 -25 29 c-14 17 -22
34 -20 38 8 13 -25 60 -37 52 -6 -3 -17 3 -25 15 -33 47 -84 47 -84 1 0 -19
-25 -35 -50 -31 -12 2 -13 0 -3 -10 7 -7 13 -18 13 -23 0 -6 -7 -3 -14 7 -8
10 -19 16 -26 15 -7 -2 -15 3 -17 10 -3 7 1 10 10 6 11 -4 13 1 9 23 -3 15
-10 31 -16 35 -17 12 -215 9 -237 -2 -16 -9 -19 -22 -19 -74 0 -59 -2 -64 -20
-59 -11 3 -20 0 -20 -6 0 -6 -7 -11 -15 -11 -10 0 -15 -10 -16 -27 0 -26 -1
-26 -9 -7 -5 12 -13 25 -19 28 -6 4 -8 26 -4 54 9 82 -36 111 -178 112 -80 0
-89 -8 -90 -83 -1 -30 -5 -61 -10 -69 -6 -9 -9 -10 -9 0 0 15 -76 17 -85 2 -9
-15 -42 -12 -59 6 -10 10 -14 24 -10 40 4 14 2 24 -5 24 -6 0 -8 -7 -5 -15 5
-12 -4 -15 -52 -15 -33 1 -86 0 -119 0 -60 -1 -60 -1 -30 -16 26 -13 27 -14 5
-9 -14 2 -35 5 -47 5 -20 0 -23 5 -23 35 l0 35 90 0 c50 0 90 -4 90 -9 0 -5
-9 -7 -20 -4 -11 3 -20 1 -20 -4 0 -5 20 -11 45 -11 36 -2 45 1 45 14 0 11 -6
15 -18 12 -13 -4 -17 2 -17 26 l0 31 -105 3 c-58 2 -115 0 -127 -3 -24 -6 -34
-38 -35 -111 -1 -24 -5 -44 -10 -44 -5 0 -7 4 -3 9 6 11 -33 9 -55 -3 -8 -4
-2 4 13 18 l28 26 -50 0 c-28 0 -51 -4 -51 -10 0 -5 -5 -10 -11 -10 -5 0 -7 5
-4 10 3 5 -1 10 -9 10 -10 0 -16 9 -16 25 0 24 3 25 60 25 57 0 60 1 60 24 0
13 -7 27 -16 30 -9 3 -73 6 -144 6 -101 0 -130 -3 -140 -15 -24 -29 -4 -45 55
-45 52 0 55 -1 55 -25 0 -24 -3 -25 -60 -25 -40 0 -60 -4 -60 -12 0 -9 -3 -9
-11 -1 -6 6 -18 9 -25 6 -9 -3 -14 1 -12 13 5 60 -3 93 -23 99 -28 9 -48 -11
-51 -52 -2 -31 -3 -32 -21 -15 -11 9 -22 17 -26 17 -3 0 -5 3 -4 7 5 13 -14 9
-26 -5 -6 -8 -8 -18 -4 -23 4 -5 -9 6 -29 25 -21 19 -34 39 -31 44 3 6 1 7 -5
3 -6 -4 -20 -2 -31 3 -15 8 -20 7 -25 -6 -6 -15 -8 -15 -24 1 -15 15 -15 18
-2 26 20 13 4 13 -21 0 -16 -9 -17 -14 -7 -30 7 -10 15 -17 19 -14 4 2 7 -4 7
-13 0 -10 3 -27 6 -38 8 -20 7 -20 -8 -1 -9 11 -16 25 -16 32 0 7 -3 14 -8 16
-8 3 -82 105 -82 113 0 3 -15 27 -34 54 -19 27 -33 51 -30 54 3 3 -6 13 -19
23 -13 11 -22 25 -19 32 2 7 -5 12 -17 12 -12 0 -21 5 -21 12 0 6 -13 -1 -29
-16 -23 -22 -29 -25 -34 -12 -4 11 -1 16 12 16 10 0 26 14 36 33 17 32 17 36
0 80 -10 26 -21 44 -26 41 -5 -3 -6 2 -3 10 3 8 0 24 -6 36 -6 12 -9 24 -7 27
5 4 29 -43 65 -127 8 -21 10 -21 9 -5 0 11 3 30 7 43 4 12 4 22 -1 22 -5 0
-10 12 -11 28 -1 25 0 25 12 9 12 -16 14 -16 20 -1 3 9 2 22 -4 29 -5 6 -7 15
-3 18 3 4 -2 9 -11 13 -20 8 -21 24 -1 24 8 0 15 -4 15 -10 0 -5 7 -10 16 -10
14 0 14 3 4 15 -7 8 -19 15 -26 15 -8 0 -14 5 -14 11 0 6 9 9 20 6 11 -3 20
-1 20 4 0 8 -17 13 -46 12 -10 0 -11 17 -4 37 1 3 2 9 1 13 -1 5 8 11 20 14
13 4 16 8 9 13 -6 4 -12 17 -13 28 -1 12 -5 22 -10 22 -4 0 -7 10 -5 22 2 17
-3 23 -27 28 -17 4 -40 12 -50 19 -22 13 -25 13 75 -3 26 -4 30 -3 14 3 -21 9
-39 39 -29 49 2 3 7 -3 11 -12 3 -9 10 -13 15 -10 5 3 9 0 9 -5 0 -6 4 -11 8
-11 4 0 8 19 9 41 1 23 -1 38 -5 34 -4 -3 -7 -14 -7 -22 0 -21 -21 -28 -28 -9
-4 10 -1 13 8 10 10 -4 12 2 5 30 -5 22 -4 38 2 42 5 3 7 13 4 21 -5 11 -2 13
10 9 8 -3 20 -6 26 -6 6 0 1 -8 -10 -19 -27 -23 -27 -26 -3 -28 12 -1 18 3 15
11 -7 17 22 40 38 30 9 -5 8 -2 -2 10 -8 11 -16 14 -18 7 -2 -6 -8 -8 -13 -5
-6 4 -6 11 1 19 9 11 7 12 -8 8 -12 -3 -22 2 -26 13 -5 14 -4 15 8 5 8 -7 17
-8 20 -3 6 11 -18 35 -26 27 -3 -3 -11 3 -19 12 -12 16 -12 17 1 7 8 -6 24 -8
34 -4 15 5 16 9 7 15 -11 6 -11 9 0 16 10 6 11 9 2 9 -26 0 -12 20 15 21 24 0
25 1 7 9 -12 5 109 9 293 9 l312 1 0 -361 c0 -372 6 -438 39 -440 68 -3 746 3
752 7 5 2 7 61 6 129 -2 102 -5 125 -16 125 -12 0 -12 3 -3 12 15 15 16 68 2
68 -20 0 -27 43 -12 73 8 16 17 48 19 72 5 39 3 42 -26 55 -31 12 -40 33 -21
45 6 3 10 1 10 -6 0 -9 3 -9 15 1 10 8 13 31 12 86 -1 41 -5 74 -9 74 -5 0 -8
7 -8 15 0 8 5 15 11 15 5 0 8 4 5 8 -2 4 5 9 17 9 12 1 23 7 25 13 2 5 28 10
57 10 l53 0 181 186 c185 191 199 211 171 254 -8 12 -10 9 -10 -11 0 -44 -35
-79 -79 -79 -37 0 -71 23 -71 47 0 10 -45 23 -82 23 -11 0 -50 -27 -86 -60
l-67 -60 -97 5 -97 6 -6 -33 c-3 -18 -12 -78 -20 -133 -8 -55 -17 -113 -20
-130 -5 -23 -2 -33 14 -43 13 -7 21 -8 21 -2 0 5 15 10 33 10 21 0 28 -3 19
-9 -11 -7 -11 -9 1 -14 17 -6 12 -47 -5 -47 -5 0 -7 -4 -4 -9 3 -5 -2 -8 -12
-7 -9 0 -17 -6 -17 -14 0 -8 -4 -20 -8 -27 -4 -6 -1 -13 5 -16 7 -2 9 -8 5
-13 -19 -20 -31 35 -14 63 4 6 3 14 -3 18 -6 4 -7 11 -4 17 5 7 2 8 -6 3 -10
-6 -12 -4 -7 8 4 12 1 17 -9 17 -12 0 -15 -6 -10 -26 5 -17 3 -24 -4 -19 -17
10 -1 -67 17 -81 16 -14 7 -68 -11 -61 -6 3 -19 -5 -28 -18 -13 -17 -13 -22
-3 -22 8 0 12 4 10 8 -3 4 2 10 11 13 8 3 12 2 9 -3 -3 -5 -1 -12 3 -15 5 -3
8 -19 7 -35 -1 -17 4 -32 12 -35 21 -8 15 -29 -7 -23 -11 3 -20 1 -20 -4 0 -5
5 -9 10 -9 6 0 10 -9 10 -19 0 -15 -7 -19 -35 -19 -19 0 -35 4 -35 10 0 5 -12
0 -26 -11 -34 -27 -59 -26 -88 2 -21 22 -23 34 -35 282 -13 291 -20 363 -32
344 -5 -9 -16 -5 -40 18 -17 18 -37 42 -43 55 -15 29 -46 35 -62 13 -7 -10
-20 -15 -28 -12 -8 3 -16 1 -18 -5 -3 -8 -12 -6 -28 5 -27 19 -59 8 -61 -21 0
-9 -3 -12 -5 -6 -3 7 -22 8 -57 3 -607 -89 -823 -121 -876 -130 -35 -5 -66 -7
-70 -4 -9 9 -7 472 2 518 5 20 22 53 39 73 52 59 76 64 299 64 183 0 199 1
200 18 0 10 3 12 6 5 2 -7 18 -13 35 -13 29 0 30 1 16 18 -8 9 -18 24 -22 32
-5 9 -2 8 7 -2 15 -19 42 -24 52 -9 3 5 -3 17 -12 27 -15 15 -16 17 -2 12 9
-4 22 -1 29 5 10 9 11 7 5 -12 -6 -21 -5 -22 8 -10 14 12 14 16 1 29 -9 9 -17
11 -22 5 -8 -11 -102 -14 -102 -4 0 7 107 28 146 30 15 0 16 2 4 7 -8 4 -16
15 -16 25 -2 14 1 15 12 6 12 -10 13 -9 8 5 -3 9 -1 17 5 17 6 1 16 2 23 3 7
0 15 12 18 26 4 17 8 21 14 12 4 -6 4 -12 -1 -12 -4 0 0 -5 10 -11 10 -6 22
-8 25 -4 7 6 -18 31 -88 88 -37 30 -24 27 23 -6 15 -10 39 -20 53 -22 20 -2
24 1 19 19 -2 11 -2 15 1 9 3 -7 10 -13 15 -13 6 0 7 4 4 10 -3 6 1 7 9 4 9
-3 16 -1 16 5 0 6 -4 11 -10 11 -5 0 -7 7 -4 15 5 13 10 12 25 -6 19 -22 19
-19 19 189 0 189 -2 212 -16 212 -13 0 -15 7 -10 31 3 17 6 35 6 40 0 4 12 1
28 -7 24 -12 27 -12 30 1 3 12 24 15 113 15 87 0 109 3 109 14 0 8 3 21 6 29
3 8 -2 17 -13 21 -10 4 -19 2 -21 -3 -2 -6 -11 -11 -19 -11 -9 0 -31 -9 -49
-21 -19 -11 -34 -19 -34 -16 0 4 100 69 157 103 22 12 31 24 28 35 -6 19 19
44 34 34 7 -3 8 0 5 10 -4 10 -2 14 8 10 9 -4 14 1 14 13 0 15 -10 18 -76 21
-90 3 -106 11 -27 12 32 1 66 3 77 4 11 1 28 3 38 4 13 1 14 3 3 10 -11 7 -11
9 0 14 12 4 12 7 0 18 -8 8 -11 9 -8 3 4 -7 -2 -14 -13 -17 -16 -4 -18 -2 -10
13 6 10 10 21 10 24 0 3 -46 32 -102 66 -57 34 -114 70 -128 81 l-25 21 35
-20 c19 -11 73 -41 119 -67 46 -27 90 -48 97 -48 7 0 10 -5 7 -10 -4 -6 0 -8
9 -4 9 3 20 1 26 -5 7 -7 10 -4 9 8 -1 11 4 18 12 16 9 -2 12 4 8 19 -4 16 -3
19 6 10 18 -18 29 -13 17 9 -6 11 -15 18 -19 16 -4 -3 -8 1 -8 9 0 10 6 10 26
-3 23 -16 25 -16 19 0 -5 12 -1 19 13 23 16 5 18 10 8 21 -8 10 -8 14 0 14 6
0 11 7 11 15 0 22 -15 18 -28 -7 -10 -22 -11 -22 -9 5 1 16 7 27 15 27 9 0 12
6 8 16 -3 8 -2 12 4 9 11 -7 14 182 4 209 -6 14 -129 16 -1295 16 l-1289 0 0
-2500z m2190 2224 c0 -2 -9 0 -20 6 -11 6 -20 13 -20 16 0 2 9 0 20 -6 11 -6
20 -13 20 -16z m-290 -261 c0 -14 -26 -18 -34 -4 -7 11 0 18 19 18 8 0 15 -6
15 -14z m-183 -939 c-3 -3 -12 -4 -19 -1 -8 3 -5 6 6 6 11 1 17 -2 13 -5z
m-319 -913 c-7 -12 -16 -21 -21 -21 -4 0 0 11 9 25 20 30 31 26 12 -4z m-28
-35 c0 -2 -13 -20 -30 -41 -16 -21 -30 -35 -30 -31 0 7 52 76 58 76 1 0 2 -2
2 -4z m-200 -197 c14 -10 35 -17 45 -16 14 1 20 -4 20 -18 0 -30 -33 -31 -45
-1 -5 14 -13 26 -17 26 -5 0 -19 10 -33 21 -28 23 -10 16 30 -12z m207 6 c0
-8 -4 -12 -9 -9 -5 3 -6 10 -3 15 9 13 12 11 12 -6z m-52 -277 c8 -21 11 -40
7 -42 -5 -3 -8 4 -9 14 -1 10 -15 49 -32 85 -17 37 -31 72 -30 78 0 13 43 -76
64 -135z m1394 85 c-10 -11 -14 -11 -20 -1 -10 17 -2 28 17 21 11 -4 12 -8 3
-20z m-1769 -88 c0 -19 -11 -19 -36 0 -18 14 -18 14 9 15 17 0 27 -5 27 -15z
m310 -207 c0 -6 -6 -5 -15 2 -8 7 -15 14 -15 16 0 2 7 1 15 -2 8 -4 15 -11 15
-16z m30 -18 c0 -5 -2 -10 -4 -10 -3 0 -8 5 -11 10 -3 6 -1 10 4 10 6 0 11 -4
11 -10z m94 -39 c-2 -2 -10 1 -17 7 -8 7 -17 9 -21 5 -4 -4 -4 0 -1 9 6 15 8
15 24 0 10 -9 16 -19 15 -21z m-54 9 c0 -5 -2 -10 -4 -10 -3 0 -8 5 -11 10 -3
6 -1 10 4 10 6 0 11 -4 11 -10z m-5 -98 c-53 -42 -60 -46 -33 -19 16 15 31 27
35 27 4 0 3 -3 -2 -8z m3145 -151 c0 -10 -7 -24 -15 -31 -13 -11 -14 -10 -9 4
4 11 1 16 -10 16 -9 0 -16 4 -16 10 0 5 7 7 15 4 8 -4 15 -1 15 5 0 6 5 11 10
11 6 0 10 -8 10 -19z m-3370 -41 c0 -22 -12 -25 -41 -9 -25 13 -16 29 17 29
17 0 24 -5 24 -20z m3847 14 c-3 -4 0 -16 8 -28 18 -25 20 -45 3 -28 -18 18
-30 15 -61 -14 -16 -14 -31 -24 -34 -21 -7 8 33 63 60 82 22 15 36 20 24 9z
m-1877 -122 c21 -17 21 -19 5 -35 -11 -12 -33 -17 -71 -17 l-54 0 0 35 0 35
49 0 c32 0 56 -6 71 -18z m420 9 c0 -10 -14 -15 -34 -12 -5 1 -6 -5 -3 -14 7
-17 6 -18 -18 -9 -13 5 -14 9 -3 15 9 6 6 8 -9 6 -22 -1 -22 -1 4 -29 19 -20
22 -28 11 -28 -8 0 -23 9 -34 21 -10 11 -28 26 -39 31 -19 11 -19 10 -2 -9 16
-19 16 -20 0 -20 -19 0 -42 24 -43 43 0 7 30 12 85 13 54 1 85 -2 85 -8z m110
-11 c0 -5 -2 -10 -4 -10 -3 0 -8 5 -11 10 -3 6 -1 10 4 10 6 0 11 -4 11 -10z
m-1720 -35 c0 -10 -9 -14 -27 -13 -45 3 -51 12 -13 19 19 4 36 7 38 8 1 0 2
-6 2 -14z m1447 -7 c-3 -8 -6 -5 -6 6 -1 11 2 17 5 13 3 -3 4 -12 1 -19z
m-1207 -8 c0 -5 -4 -10 -10 -10 -5 0 -10 5 -10 10 0 6 5 10 10 10 6 0 10 -4
10 -10z m470 6 c0 -2 -7 -7 -16 -10 -8 -3 -12 -2 -9 4 6 10 25 14 25 6z m-620
-16 c0 -5 -2 -10 -4 -10 -3 0 -8 5 -11 10 -3 6 -1 10 4 10 6 0 11 -4 11 -10z
m1630 -30 c0 -5 -20 -10 -45 -10 -25 0 -45 5 -45 10 0 6 20 10 45 10 25 0 45
-4 45 -10z m90 0 c0 -5 -4 -10 -10 -10 -5 0 -10 5 -10 10 0 6 5 10 10 10 6 0
10 -4 10 -10z m-1636 -46 c17 -17 10 -40 -18 -63 -31 -26 -71 15 -55 57 10 26
50 30 73 6z m-794 -119 c0 -8 -4 -15 -10 -15 -5 0 -10 7 -10 15 0 8 5 15 10
15 6 0 10 -7 10 -15z m1943 -15 c9 0 9 -2 1 -8 -6 -4 -14 -14 -17 -22 -4 -12
-6 -11 -6 3 -1 15 -14 17 -113 19 l-113 2 105 6 c58 3 111 5 118 3 8 -2 19 -3
25 -3z m-760 -16 c89 1 171 5 181 10 14 7 17 6 12 -3 -10 -16 93 -139 119
-142 20 -1 20 -1 0 -6 -14 -4 -33 9 -70 52 -46 52 -57 58 -106 66 -30 5 -125
9 -212 8 -87 0 -161 2 -164 4 -14 15 10 24 42 17 20 -4 108 -7 198 -6z m460 9
c-13 -2 -35 -2 -50 0 -16 2 -5 4 22 4 28 0 40 -2 28 -4z m4 -149 c-3 -3 -12
-4 -19 -1 -8 3 -5 6 6 6 11 1 17 -2 13 -5z m166 -1 c-23 -2 -64 -2 -90 0 -26
2 -7 3 42 3 50 0 71 -1 48 -3z m690 -30 c-13 -2 -33 -2 -45 0 -13 2 -3 4 22 4
25 0 35 -2 23 -4z m124 0 c-20 -2 -52 -2 -70 0 -17 2 0 4 38 4 39 0 53 -2 32
-4z m-1262 -43 c3 -6 -1 -7 -9 -4 -18 7 -21 14 -7 14 6 0 13 -4 16 -10z m-58
-42 c-3 -8 -6 -5 -6 6 -1 11 2 17 5 13 3 -3 4 -12 1 -19z m126 5 c-7 -2 -21
-2 -30 0 -10 3 -4 5 12 5 17 0 24 -2 18 -5z"/>
<path d="M1997 1314 c-8 -9 11 -44 24 -44 6 0 9 10 7 22 -3 22 -19 34 -31 22z"/>
<path d="M1995 1260 c3 -5 14 -10 23 -10 15 0 15 2 2 10 -20 13 -33 13 -25 0z"/>
<path d="M2610 4872 c0 -54 4 -82 11 -82 6 0 9 9 6 20 -3 11 0 20 6 20 7 0 5
5 -3 10 -12 8 -13 11 -1 19 7 5 9 11 4 14 -6 4 -10 20 -11 38 0 17 -3 34 -6
37 -3 3 -6 -31 -6 -76z"/>
<path d="M2506 4517 c3 -10 9 -15 12 -12 3 3 0 11 -7 18 -10 9 -11 8 -5 -6z"/>
<path d="M2460 4410 c-9 -6 -10 -10 -3 -10 6 0 15 5 18 10 8 12 4 12 -15 0z"/>
<path d="M2410 4401 c0 -10 19 -25 25 -20 1 2 -3 10 -11 17 -8 7 -14 8 -14 3z"/>
<path d="M2351 4316 l-24 -13 30 -10 c26 -10 29 -8 28 8 -2 27 -7 29 -34 15z"/>
<path d="M2172 3611 c-14 -12 -17 -23 -11 -44 4 -16 4 -25 -2 -21 -5 3 -9 12
-9 20 0 24 -30 16 -31 -8 -2 -41 3 -113 7 -117 8 -8 25 16 27 37 0 11 10 23
20 26 17 4 18 3 3 -13 -31 -34 -16 -31 19 3 19 20 35 42 35 50 0 10 6 13 18
10 13 -5 14 -4 3 4 -8 5 -12 18 -9 29 10 36 -38 53 -70 24z"/>
<path d="M1928 3603 c7 -3 16 -2 19 1 4 3 -2 6 -13 5 -11 0 -14 -3 -6 -6z"/>
<path d="M1787 3144 c-12 -13 -8 -52 7 -57 21 -8 49 16 44 39 -3 19 -38 31
-51 18z"/>
<path d="M2595 2977 c-17 -13 -17 -21 -6 -135 6 -66 11 -141 11 -166 0 -44 1
-46 29 -46 37 0 49 16 55 71 2 24 12 88 21 142 l17 98 -23 25 c-25 27 -74 32
-104 11z"/>
<path d="M2502 2910 c0 -14 2 -19 5 -12 2 6 2 18 0 25 -3 6 -5 1 -5 -13z"/>
<path d="M2631 2394 c0 -11 3 -14 6 -6 3 7 2 16 -1 19 -3 4 -6 -2 -5 -13z"/>
<path d="M2680 2279 c0 -11 4 -18 10 -14 5 3 7 12 3 20 -7 21 -13 19 -13 -6z"/>
<path d="M1450 2239 c0 -5 5 -7 10 -4 6 3 10 8 10 11 0 2 -4 4 -10 4 -5 0 -10
-5 -10 -11z"/>
<path d="M1492 1804 c-7 -8 -17 -12 -23 -9 -5 4 -9 -1 -9 -9 0 -9 5 -15 12
-13 16 3 48 30 48 39 0 12 -14 9 -28 -8z"/>
<path d="M1480 1753 c0 -5 5 -15 10 -23 8 -12 10 -11 10 8 0 12 -4 22 -10 22
-5 0 -10 -3 -10 -7z"/>
<path d="M1520 1710 c-13 -8 -12 -10 3 -10 9 0 17 5 17 10 0 12 -1 12 -20 0z"/>
<path d="M1584 1705 c-4 -8 -12 -15 -20 -15 -8 0 -14 -6 -15 -12 0 -7 -2 -21
-4 -30 -2 -10 1 -21 7 -24 5 -4 8 4 6 17 -2 18 2 24 14 23 10 -1 15 2 12 7 -3
5 0 18 6 29 6 11 8 20 5 20 -3 0 -8 -7 -11 -15z"/>
<path d="M1575 1613 c2 -18 10 -41 18 -53 12 -18 16 -19 27 -5 7 8 18 15 25
15 7 0 15 9 18 20 4 16 2 18 -13 10 -15 -8 -20 -6 -25 10 -5 16 -10 18 -25 10
-14 -8 -20 -6 -24 8 -2 9 -3 3 -1 -15z m40 -33 c3 -5 2 -10 -4 -10 -5 0 -13 5
-16 10 -3 6 -2 10 4 10 5 0 13 -4 16 -10z"/>
<path d="M4516 1631 c-4 -7 -5 -15 -2 -18 9 -9 19 4 14 18 -4 11 -6 11 -12 0z"/>
<path d="M1790 1520 c-9 -6 -10 -10 -3 -10 6 0 15 5 18 10 8 12 4 12 -15 0z"/>
<path d="M1856 1475 c4 -8 8 -15 10 -15 2 0 4 7 4 15 0 8 -4 15 -10 15 -5 0
-7 -7 -4 -15z"/>
<path d="M2063 1443 c9 -2 25 -2 35 0 9 3 1 5 -18 5 -19 0 -27 -2 -17 -5z"/>
</g>
</svg>
